Coordinates
version=1
nRows=8
nColumns=36
inDegrees=yes

Units are S.I. units (second, meters, Newtons, ...)
If the header above contains a line with 'inDegrees', this indicates whether rotational values are in degrees (yes) or radians (no).

endheader
time	pelvis_tilt	pelvis_list	pelvis_rotation	pelvis_tx	pelvis_ty	pelvis_tz	hip_flexion_r	hip_adduction_r	hip_rotation_r	knee_angle_r	knee_angle_r_beta	ankle_angle_r	subtalar_angle_r	mtp_angle_r	hip_flexion_l	hip_adduction_l	hip_rotation_l	knee_angle_l	knee_angle_l_beta	ankle_angle_l	subtalar_angle_l	mtp_angle_l	lumbar_extension	lumbar_bending	lumbar_rotation	arm_flex_r	arm_add_r	arm_rot_r	elbow_flex_r	pro_sup_r	arm_flex_l	arm_add_l	arm_rot_l	elbow_flex_l	pro_sup_l
      7.40000000	    -34.13647032	     -6.05366053	     10.35783681	      0.60121185	      0.62875898	     -0.01415638	     90.74529853	    -18.81625967	     -4.76289883	     92.72467993	      1.61835096	     39.07493538	     -3.09453658	     -7.49999987	     91.56217527	    -18.38008153	     -3.44899937	     88.06750054	      1.53706785	     34.21759982	     -6.82457796	     -7.49999987	    -10.96042098	     -0.27219608	      7.43119044	     71.35033176	     -6.14383477	     67.30346306	    129.97373399	     99.19987496	     73.02090943	      3.14900251	     76.55940456	    115.11156392	    101.59756622
      7.41666670	    -34.65213429	     -6.28548961	     10.19932153	      0.59266953	      0.61093737	     -0.01297442	     93.27115092	    -18.63648135	     -4.30427633	     94.92723575	      1.65679281	     39.10784604	     -3.76647598	     -7.49999987	     94.33770329	    -18.79544371	     -2.71857662	     90.35328692	      1.57696235	     34.13893573	     -7.09427780	     -7.49999987	    -11.46709992	     -0.28476269	      7.59422594	     72.54054412	     -6.38349055	     67.33214135	    130.03235628	     98.14499773	     74.73783459	      3.36778105	     76.39900989	    114.89453776	    100.52135800
      7.43333330	    -34.94984280	     -6.47405893	     10.08682953	      0.59251385	      0.60109802	     -0.01832202	     95.41835480	    -18.57747874	     -3.90911971	     96.88052997	      1.69088423	     39.20921109	     -4.32442827	     -7.49999987	     96.75484835	    -19.01831962	     -1.96058685	     92.44633374	      1.61349291	     34.14936042	     -7.43237824	     -7.49999987	    -12.08270581	     -0.22723571	      7.65764508	     73.35004797	     -6.66663176	     67.35640367	    130.63288479	     98.08676606	     75.51944765	      4.14382312	     76.13854152	    114.91464476	    100.54591140
      7.45000000	    -35.48461724	     -6.79661368	      9.87063388	      0.58395455	      0.58991651	     -0.01757916	     97.69236527	    -18.41182699	     -3.65885087	     98.55260000	      1.72006736	     38.76048752	     -5.34794488	     -7.49999987	     99.42033115	    -19.25952107	     -1.12296674	     94.37793978	      1.64720579	     33.72573499	     -7.99198938	     -7.49999987	    -12.40472016	     -0.34819090	      8.72642483	     73.76865483	     -8.77754632	     67.36479390	    132.36132436	     97.01261235	     76.36300365	      5.79938386	     76.97160558	    112.80764487	    100.86732859
      7.46666670	    -35.88527474	     -6.96890147	      9.73264498	      0.57961865	      0.58346605	     -0.01960109	     99.69426431	    -18.33835287	     -3.30790912	     99.96303356	      1.74468407	     38.30418264	     -6.20770462	     -7.49999987	    101.66317499	    -19.28971330	     -0.45574830	     95.97061310	      1.67500318	     33.40106013	     -8.42545185	     -7.49999987	    -13.10262218	     -0.20895564	      9.05222676	     74.18498479	     -9.61455817	     67.72643439	    132.57700681	     95.53013484	     76.96953846	      6.30898199	     77.06506431	    112.26358671	     99.75416920
      7.48333330	    -35.72306521	     -6.98411348	      9.75778195	      0.58159580	      0.57844411	     -0.01554455	    100.88013347	    -18.35193027	     -2.91403186	    101.22671911	      1.76673954	     38.18426247	     -6.48143956	     -7.49999987	    102.96776826	    -19.22216368	      0.06377889	     97.30097481	      1.69822238	     33.28284031	     -8.55956670	     -7.49999987	    -14.37072133	     -0.29006157	      9.30092921	     74.11608351	     -9.56223800	     67.84594347	    132.50282543	     95.51240558	     77.02286014	      6.14600218	     77.17259365	    112.02001782	     99.78561532
      7.50000000	    -36.38933812	     -7.30014723	      9.56798979	      0.57256366	      0.56761643	     -0.01988583	    102.82828351	    -18.10548192	     -2.66370927	    102.19210703	      1.78358874	     37.27630861	     -7.89081831	     -7.49999987	    105.24670182	    -19.17748945	      0.77477030	     98.48498070	      1.71888718	     32.84944268	     -9.03465544	     -7.49999987	    -14.47694672	     -0.25918032	      9.95096121	     74.67629673	    -11.22646396	     68.24085470	    133.41113743	     92.91684346	     78.01543543	      7.18452208	     76.96264019	    110.81700710	    101.27781033
      7.51666670	    -36.57547889	     -7.39997631	      9.51627516	      0.57133197	      0.56003912	     -0.01833954	    104.24838935	    -17.99505494	     -2.26612505	    103.18132539	      1.80085385	     36.71772228	     -8.61827886	     -7.49999987	    106.78433742	    -19.04648869	      1.28720005	     99.55862744	      1.73762585	     32.53933430	     -9.36913889	     -7.49999987	    -14.96104472	     -0.24939371	     10.17230686	     75.41356299	    -11.75554965	     68.97454956	    133.88972897	     91.31151151	     78.82954032	      7.65737849	     76.72048114	    110.90501735	    100.14346500
